<svg data-v-423bf9ae="" xmlns="http://www.w3.org/2000/svg" viewBox="0 0 536.2035526530509 60" class="font"><!----><!----><!----><g data-v-423bf9ae="" id="009c291f-0f9f-49a7-ac2e-09d5ac88e03c" fill="white" transform="matrix(8.253094390926163,0,0,8.253094390926163,-4.621730638283736,-63.3012346080648)"><path d="M6.47 12.67L6.47 12.67L6.47 12.67Q6.47 13.73 5.67 14.34L5.67 14.34L5.67 14.34Q4.87 14.94 3.32 14.94L3.32 14.94L3.32 14.94Q2.73 14.94 2.23 14.85L2.23 14.85L2.23 14.85Q1.72 14.77 1.36 14.60L1.36 14.60L1.36 14.60Q1.01 14.42 0.81 14.15L0.81 14.15L0.81 14.15Q0.60 13.89 0.60 13.52L0.60 13.52L0.60 13.52Q0.60 13.19 0.74 12.96L0.74 12.96L0.74 12.96Q0.88 12.73 1.08 12.57L1.08 12.57L1.08 12.57Q1.48 12.80 2.01 12.97L2.01 12.97L2.01 12.97Q2.53 13.15 3.22 13.15L3.22 13.15L3.22 13.15Q3.65 13.15 3.89 13.02L3.89 13.02L3.89 13.02Q4.12 12.89 4.12 12.68L4.12 12.68L4.12 12.68Q4.12 12.49 3.95 12.38L3.95 12.38L3.95 12.38Q3.78 12.26 3.39 12.19L3.39 12.19L2.97 12.11L2.97 12.11Q1.75 11.87 1.16 11.36L1.16 11.36L1.16 11.36Q0.56 10.85 0.56 9.90L0.56 9.90L0.56 9.90Q0.56 9.38 0.78 8.96L0.78 8.96L0.78 8.96Q1.01 8.54 1.41 8.26L1.41 8.26L1.41 8.26Q1.82 7.98 2.39 7.83L2.39 7.83L2.39 7.83Q2.95 7.67 3.64 7.67L3.64 7.67L3.64 7.67Q4.16 7.67 4.61 7.75L4.61 7.75L4.61 7.75Q5.07 7.83 5.40 7.98L5.40 7.98L5.40 7.98Q5.74 8.13 5.94 8.38L5.94 8.38L5.94 8.38Q6.13 8.62 6.13 8.96L6.13 8.96L6.13 8.96Q6.13 9.28 6.01 9.51L6.01 9.51L6.01 9.51Q5.89 9.74 5.71 9.90L5.71 9.90L5.71 9.90Q5.60 9.83 5.38 9.75L5.38 9.75L5.38 9.75Q5.15 9.67 4.89 9.61L4.89 9.61L4.89 9.61Q4.62 9.55 4.35 9.51L4.35 9.51L4.35 9.51Q4.07 9.46 3.85 9.46L3.85 9.46L3.85 9.46Q3.39 9.46 3.14 9.57L3.14 9.57L3.14 9.57Q2.88 9.67 2.88 9.90L2.88 9.90L2.88 9.90Q2.88 10.05 3.02 10.15L3.02 10.15L3.02 10.15Q3.16 10.25 3.56 10.33L3.56 10.33L3.99 10.43L3.99 10.43Q5.33 10.74 5.90 11.28L5.90 11.28L5.90 11.28Q6.47 11.82 6.47 12.67ZM11.21 14.92L11.21 14.92L11.21 14.92Q10.39 14.92 9.68 14.69L9.68 14.69L9.68 14.69Q8.97 14.46 8.45 14.00L8.45 14.00L8.45 14.00Q7.92 13.54 7.62 12.84L7.62 12.84L7.62 12.84Q7.32 12.14 7.32 11.20L7.32 11.20L7.32 11.20Q7.32 10.28 7.62 9.61L7.62 9.61L7.62 9.61Q7.92 8.95 8.41 8.52L8.41 8.52L8.41 8.52Q8.90 8.09 9.53 7.89L9.53 7.89L9.53 7.89Q10.16 7.69 10.82 7.69L10.82 7.69L10.82 7.69Q11.56 7.69 12.17 7.91L12.17 7.91L12.17 7.91Q12.78 8.13 13.22 8.53L13.22 8.53L13.22 8.53Q13.66 8.92 13.91 9.46L13.91 9.46L13.91 9.46Q14.15 10.01 14.15 10.65L14.15 10.65L14.15 10.65Q14.15 11.13 13.89 11.38L13.89 11.38L13.89 11.38Q13.62 11.63 13.15 11.70L13.15 11.70L9.69 12.22L9.69 12.22Q9.84 12.68 10.32 12.92L10.32 12.92L10.32 12.92Q10.79 13.15 11.41 13.15L11.41 13.15L11.41 13.15Q11.98 13.15 12.50 13.00L12.50 13.00L12.50 13.00Q13.01 12.85 13.33 12.66L13.33 12.66L13.33 12.66Q13.55 12.80 13.71 13.05L13.71 13.05L13.71 13.05Q13.86 13.30 13.86 13.58L13.86 13.58L13.86 13.58Q13.86 14.21 13.27 14.52L13.27 14.52L13.27 14.52Q12.82 14.76 12.26 14.84L12.26 14.84L12.26 14.84Q11.70 14.92 11.21 14.92ZM10.82 9.42L10.82 9.42L10.82 9.42Q10.49 9.42 10.24 9.53L10.24 9.53L10.24 9.53Q10.00 9.65 9.84 9.82L9.84 9.82L9.84 9.82Q9.69 10.00 9.61 10.21L9.61 10.21L9.61 10.21Q9.53 10.43 9.52 10.65L9.52 10.65L11.91 10.26L11.91 10.26Q11.87 9.98 11.61 9.70L11.61 9.70L11.61 9.70Q11.34 9.42 10.82 9.42ZM19.61 13.69L19.61 10.39L19.61 10.39Q19.61 9.95 19.37 9.75L19.37 9.75L19.37 9.75Q19.12 9.55 18.70 9.55L18.70 9.55L18.70 9.55Q18.42 9.55 18.15 9.62L18.15 9.62L18.15 9.62Q17.88 9.69 17.68 9.83L17.68 9.83L17.68 14.69L17.68 14.69Q17.54 14.73 17.24 14.77L17.24 14.77L17.24 14.77Q16.94 14.81 16.62 14.81L16.62 14.81L16.62 14.81Q16.31 14.81 16.07 14.77L16.07 14.77L16.07 14.77Q15.82 14.73 15.65 14.60L15.65 14.60L15.65 14.60Q15.48 14.48 15.39 14.26L15.39 14.26L15.39 14.26Q15.30 14.04 15.30 13.69L15.30 13.69L15.30 9.49L15.30 9.49Q15.30 9.11 15.46 8.88L15.46 8.88L15.46 8.88Q15.62 8.64 15.90 8.44L15.90 8.44L15.90 8.44Q16.38 8.11 17.10 7.90L17.10 7.90L17.10 7.90Q17.82 7.69 18.70 7.69L18.70 7.69L18.70 7.69Q20.29 7.69 21.14 8.38L21.14 8.38L21.14 8.38Q21.99 9.07 21.99 10.30L21.99 10.30L21.99 14.69L21.99 14.69Q21.85 14.73 21.55 14.77L21.55 14.77L21.55 14.77Q21.25 14.81 20.93 14.81L20.93 14.81L20.93 14.81Q20.62 14.81 20.38 14.77L20.38 14.77L20.38 14.77Q20.13 14.73 19.96 14.60L19.96 14.60L19.96 14.60Q19.80 14.48 19.70 14.26L19.70 14.26L19.70 14.26Q19.61 14.04 19.61 13.69L19.61 13.69ZM29.20 12.67L29.20 12.67L29.20 12.67Q29.20 13.73 28.41 14.34L28.41 14.34L28.41 14.34Q27.61 14.94 26.05 14.94L26.05 14.94L26.05 14.94Q25.47 14.94 24.96 14.85L24.96 14.85L24.96 14.85Q24.46 14.77 24.10 14.60L24.10 14.60L24.10 14.60Q23.74 14.42 23.54 14.15L23.54 14.15L23.54 14.15Q23.34 13.89 23.34 13.52L23.34 13.52L23.34 13.52Q23.34 13.19 23.48 12.96L23.48 12.96L23.48 12.96Q23.62 12.73 23.81 12.57L23.81 12.57L23.81 12.57Q24.22 12.80 24.75 12.97L24.75 12.97L24.75 12.97Q25.27 13.15 25.96 13.15L25.96 13.15L25.96 13.15Q26.39 13.15 26.62 13.02L26.62 13.02L26.62 13.02Q26.85 12.89 26.85 12.68L26.85 12.68L26.85 12.68Q26.85 12.49 26.68 12.38L26.68 12.38L26.68 12.38Q26.52 12.26 26.12 12.19L26.12 12.19L25.70 12.11L25.70 12.11Q24.49 11.87 23.89 11.36L23.89 11.36L23.89 11.36Q23.30 10.85 23.30 9.90L23.30 9.90L23.30 9.90Q23.30 9.38 23.52 8.96L23.52 8.96L23.52 8.96Q23.74 8.54 24.15 8.26L24.15 8.26L24.15 8.26Q24.56 7.98 25.12 7.83L25.12 7.83L25.12 7.83Q25.69 7.67 26.38 7.67L26.38 7.67L26.38 7.67Q26.89 7.67 27.35 7.75L27.35 7.75L27.35 7.75Q27.80 7.83 28.14 7.98L28.14 7.98L28.14 7.98Q28.48 8.13 28.67 8.38L28.67 8.38L28.67 8.38Q28.87 8.62 28.87 8.96L28.87 8.96L28.87 8.96Q28.87 9.28 28.75 9.51L28.75 9.51L28.75 9.51Q28.63 9.74 28.45 9.90L28.45 9.90L28.45 9.90Q28.34 9.83 28.11 9.75L28.11 9.75L28.11 9.75Q27.89 9.67 27.62 9.61L27.62 9.61L27.62 9.61Q27.36 9.55 27.08 9.51L27.08 9.51L27.08 9.51Q26.81 9.46 26.59 9.46L26.59 9.46L26.59 9.46Q26.12 9.46 25.87 9.57L25.87 9.57L25.87 9.57Q25.62 9.67 25.62 9.90L25.62 9.90L25.62 9.90Q25.62 10.05 25.76 10.15L25.76 10.15L25.76 10.15Q25.90 10.25 26.29 10.33L26.29 10.33L26.73 10.43L26.73 10.43Q28.07 10.74 28.64 11.28L28.64 11.28L28.64 11.28Q29.20 11.82 29.20 12.67ZM33.95 14.92L33.95 14.92L33.95 14.92Q33.12 14.92 32.42 14.69L32.42 14.69L32.42 14.69Q31.71 14.46 31.19 14.00L31.19 14.00L31.19 14.00Q30.66 13.54 30.36 12.84L30.36 12.84L30.36 12.84Q30.06 12.14 30.06 11.20L30.06 11.20L30.06 11.20Q30.06 10.28 30.36 9.61L30.36 9.61L30.36 9.61Q30.66 8.95 31.15 8.52L31.15 8.52L31.15 8.52Q31.64 8.09 32.27 7.89L32.27 7.89L32.27 7.89Q32.90 7.69 33.56 7.69L33.56 7.69L33.56 7.69Q34.30 7.69 34.91 7.91L34.91 7.91L34.91 7.91Q35.52 8.13 35.96 8.53L35.96 8.53L35.96 8.53Q36.40 8.92 36.65 9.46L36.65 9.46L36.65 9.46Q36.89 10.01 36.89 10.65L36.89 10.65L36.89 10.65Q36.89 11.13 36.62 11.38L36.62 11.38L36.62 11.38Q36.36 11.63 35.88 11.70L35.88 11.70L32.42 12.22L32.42 12.22Q32.58 12.68 33.05 12.92L33.05 12.92L33.05 12.92Q33.53 13.15 34.15 13.15L34.15 13.15L34.15 13.15Q34.72 13.15 35.23 13.00L35.23 13.00L35.23 13.00Q35.74 12.85 36.06 12.66L36.06 12.66L36.06 12.66Q36.29 12.80 36.44 13.05L36.44 13.05L36.44 13.05Q36.60 13.30 36.60 13.58L36.60 13.58L36.60 13.58Q36.60 14.21 36.01 14.52L36.01 14.52L36.01 14.52Q35.56 14.76 35 14.84L35 14.84L35 14.84Q34.44 14.92 33.95 14.92ZM33.56 9.42L33.56 9.42L33.56 9.42Q33.22 9.42 32.98 9.53L32.98 9.53L32.98 9.53Q32.73 9.65 32.58 9.82L32.58 9.82L32.58 9.82Q32.42 10.00 32.35 10.21L32.35 10.21L32.35 10.21Q32.27 10.43 32.26 10.65L32.26 10.65L34.65 10.26L34.65 10.26Q34.61 9.98 34.34 9.70L34.34 9.70L34.34 9.70Q34.08 9.42 33.56 9.42ZM41.87 9.56L41.87 9.56L41.87 9.56Q41.52 9.56 41.21 9.67L41.21 9.67L41.21 9.67Q40.89 9.79 40.66 10.00L40.66 10.00L40.66 10.00Q40.43 10.22 40.29 10.54L40.29 10.54L40.29 10.54Q40.15 10.86 40.15 11.30L40.15 11.30L40.15 11.30Q40.15 12.17 40.65 12.60L40.65 12.60L40.65 12.60Q41.15 13.03 41.86 13.03L41.86 13.03L41.86 13.03Q42.28 13.03 42.59 12.94L42.59 12.94L42.59 12.94Q42.90 12.84 43.13 12.73L43.13 12.73L43.13 12.73Q43.41 12.92 43.55 13.15L43.55 13.15L43.55 13.15Q43.69 13.38 43.69 13.71L43.69 13.71L43.69 13.71Q43.69 14.28 43.15 14.60L43.15 14.60L43.15 14.60Q42.60 14.91 41.64 14.91L41.64 14.91L41.64 14.91Q40.75 14.91 40.04 14.65L40.04 14.65L40.04 14.65Q39.33 14.39 38.82 13.92L38.82 13.92L38.82 13.92Q38.30 13.45 38.02 12.80L38.02 12.80L38.02 12.80Q37.74 12.14 37.74 11.34L37.74 11.34L37.74 11.34Q37.74 10.42 38.05 9.72L38.05 9.72L38.05 9.72Q38.35 9.03 38.86 8.58L38.86 8.58L38.86 8.58Q39.38 8.13 40.06 7.91L40.06 7.91L40.06 7.91Q40.74 7.69 41.50 7.69L41.50 7.69L41.50 7.69Q42.50 7.69 43.05 8.05L43.05 8.05L43.05 8.05Q43.60 8.41 43.60 8.99L43.60 8.99L43.60 8.99Q43.60 9.25 43.47 9.49L43.47 9.49L43.47 9.49Q43.34 9.72 43.18 9.88L43.18 9.88L43.18 9.88Q42.94 9.77 42.60 9.67L42.60 9.67L42.60 9.67Q42.27 9.56 41.87 9.56ZM47.26 9.91L47.26 14.69L47.26 14.69Q47.12 14.73 46.82 14.77L46.82 14.77L46.82 14.77Q46.52 14.81 46.20 14.81L46.20 14.81L46.20 14.81Q45.89 14.81 45.65 14.77L45.65 14.77L45.65 14.77Q45.40 14.73 45.23 14.60L45.23 14.60L45.23 14.60Q45.07 14.48 44.98 14.26L44.98 14.26L44.98 14.26Q44.88 14.04 44.88 13.69L44.88 13.69L44.88 9.49L44.88 9.49Q44.88 9.17 45.00 8.94L45.00 8.94L45.00 8.94Q45.12 8.71 45.35 8.53L45.35 8.53L45.35 8.53Q45.57 8.34 45.90 8.20L45.90 8.20L45.90 8.20Q46.23 8.05 46.61 7.94L46.61 7.94L46.61 7.94Q46.98 7.83 47.39 7.76L47.39 7.76L47.39 7.76Q47.80 7.70 48.20 7.70L48.20 7.70L48.20 7.70Q48.87 7.70 49.27 7.96L49.27 7.96L49.27 7.96Q49.66 8.22 49.66 8.81L49.66 8.81L49.66 8.81Q49.66 9.00 49.60 9.19L49.60 9.19L49.60 9.19Q49.55 9.38 49.46 9.53L49.46 9.53L49.46 9.53Q49.17 9.53 48.86 9.56L48.86 9.56L48.86 9.56Q48.55 9.59 48.26 9.65L48.26 9.65L48.26 9.65Q47.96 9.70 47.71 9.77L47.71 9.77L47.71 9.77Q47.45 9.83 47.26 9.91L47.26 9.91ZM57.68 11.30L57.68 11.30L57.68 11.30Q57.68 12.17 57.41 12.85L57.41 12.85L57.41 12.85Q57.15 13.52 56.67 13.99L56.67 13.99L56.67 13.99Q56.18 14.45 55.51 14.69L55.51 14.69L55.51 14.69Q54.84 14.92 54.01 14.92L54.01 14.92L54.01 14.92Q53.19 14.92 52.51 14.67L52.51 14.67L52.51 14.67Q51.84 14.42 51.36 13.95L51.36 13.95L51.36 13.95Q50.88 13.48 50.61 12.81L50.61 12.81L50.61 12.81Q50.34 12.14 50.34 11.30L50.34 11.30L50.34 11.30Q50.34 10.47 50.61 9.80L50.61 9.80L50.61 9.80Q50.88 9.13 51.36 8.66L51.36 8.66L51.36 8.66Q51.84 8.19 52.51 7.94L52.51 7.94L52.51 7.94Q53.19 7.69 54.01 7.69L54.01 7.69L54.01 7.69Q54.84 7.69 55.51 7.95L55.51 7.95L55.51 7.95Q56.18 8.20 56.67 8.67L56.67 8.67L56.67 8.67Q57.15 9.14 57.41 9.81L57.41 9.81L57.41 9.81Q57.68 10.49 57.68 11.30ZM52.78 11.30L52.78 11.30L52.78 11.30Q52.78 12.15 53.11 12.61L53.11 12.61L53.11 12.61Q53.44 13.06 54.03 13.06L54.03 13.06L54.03 13.06Q54.61 13.06 54.93 12.60L54.93 12.60L54.93 12.60Q55.24 12.14 55.24 11.30L55.24 11.30L55.24 11.30Q55.24 10.46 54.92 10.00L54.92 10.00L54.92 10.00Q54.60 9.55 54.01 9.55L54.01 9.55L54.01 9.55Q53.42 9.55 53.10 10.00L53.10 10.00L53.10 10.00Q52.78 10.46 52.78 11.30ZM63.15 13.69L63.15 10.39L63.15 10.39Q63.15 9.95 62.91 9.75L62.91 9.75L62.91 9.75Q62.66 9.55 62.24 9.55L62.24 9.55L62.24 9.55Q61.96 9.55 61.69 9.62L61.69 9.62L61.69 9.62Q61.42 9.69 61.22 9.83L61.22 9.83L61.22 14.69L61.22 14.69Q61.08 14.73 60.78 14.77L60.78 14.77L60.78 14.77Q60.48 14.81 60.16 14.81L60.16 14.81L60.16 14.81Q59.85 14.81 59.61 14.77L59.61 14.77L59.61 14.77Q59.36 14.73 59.19 14.60L59.19 14.60L59.19 14.60Q59.02 14.48 58.93 14.26L58.93 14.26L58.93 14.26Q58.84 14.04 58.84 13.69L58.84 13.69L58.84 9.49L58.84 9.49Q58.84 9.11 59.00 8.88L59.00 8.88L59.00 8.88Q59.16 8.64 59.44 8.44L59.44 8.44L59.44 8.44Q59.92 8.11 60.64 7.90L60.64 7.90L60.64 7.90Q61.36 7.69 62.24 7.69L62.24 7.69L62.24 7.69Q63.83 7.69 64.68 8.38L64.68 8.38L64.68 8.38Q65.53 9.07 65.53 10.30L65.53 10.30L65.53 14.69L65.53 14.69Q65.39 14.73 65.09 14.77L65.09 14.77L65.09 14.77Q64.79 14.81 64.47 14.81L64.47 14.81L64.47 14.81Q64.16 14.81 63.92 14.77L63.92 14.77L63.92 14.77Q63.67 14.73 63.50 14.60L63.50 14.60L63.50 14.60Q63.34 14.48 63.25 14.26L63.25 14.26L63.25 14.26Q63.15 14.04 63.15 13.69L63.15 13.69Z"></path></g><!----><!----></svg>